# xmcd
# 
# Track frame offsets:
#     150
#     26965
#     40901
#     63410
#     81268
#     102329
#     112856
#     134955
#     166873
#     204937
#     226755
#     253310
#     281370
#     304032
# 
# Disc length: 4238
# 
# Revision: 3
# Processed by: cddbd v1.5.2PL0 Copyright (c) Steve Scherf et al.
# Submitted via: fre:ac v1.0.17
# 
DISCID=c0108c0e
DTITLE=The Answer - Everyday Demons (Bonus Disc)
DYEAR=2009
DGENRE=Rock
TTITLE0=Come Follow Me (Live At The Shibuya-AX, Tokyo, 27 March 2007)
TTITLE1=No Questions Asked (Live At The Shibuya-AX, Tokyo, 27 March 2007)
TTITLE2=Doctor (Live At The Shibuya-AX, Tokyo, 27 March 2007)
TTITLE3=Never Too Late (Live At The Shibuya-AX, Tokyo, 27 March 2007)
TTITLE4=Keep Believin (Live At The Shibuya-AX, Tokyo, 27 March 2007)
TTITLE5=Always (Live At The Shibuya-AX, Tokyo, 27 March 2007)
TTITLE6=Sometimes Your Love (Live At The Shibuya-AX, Tokyo, 27 March 2007)
TTITLE7=Under The Sky (Live At The Shibuya-AX, Tokyo, 27 March 2007)
TTITLE8=Preachin (Live At The Shibuya-AX, Tokyo, 27 March 2007)
TTITLE9=Into The Gutter (Live At The Shibuya-AX, Tokyo, 27 March 2007)
TTITLE10=Sweet Emotion (Live At The Shibuya-AX, Tokyo, 27 March 2007)
TTITLE11=Memphis Water (Live At The Shibuya-AX, Tokyo, 27 March 2007)
TTITLE12=Be What You Want (Live At The Shibuya-AX, Tokyo, 27 March 2007)
TTITLE13=Moment - Jam (Live At The Shibuya-AX, Tokyo, 27 March 2007)
EXTD=
EXTT0=
EXTT1=
EXTT2=
EXTT3=
EXTT4=
EXTT5=
EXTT6=
EXTT7=
EXTT8=
EXTT9=
EXTT10=
EXTT11=
EXTT12=
EXTT13=
PLAYORDER=
